<svg width="18" height="17" viewBox="0 0 18 17" fill="none" xmlns="http://www.w3.org/2000/svg">
<path d="M6.75003 2.37501H11.25V3.50001H6.75003V2.37501ZM6.75003 9.12501H11.25V10.25H6.75003V9.12501ZM6.75003 11.375H11.25V12.5H6.75003V11.375ZM17.0325 17H0.967529L2.37378 11.375H4.50003V1.25001C4.4991 1.10185 4.52898 0.955121 4.58778 0.819131C4.64703 0.684131 4.72615 0.564131 4.82515 0.459131C4.92583 0.351823 5.04868 0.267747 5.18515 0.212756C5.3244 0.154276 5.474 0.124433 5.62503 0.125006H12.375C12.5232 0.124074 12.6699 0.153957 12.8059 0.212756C12.9409 0.272006 13.0609 0.351131 13.1659 0.450131C13.2732 0.550803 13.3573 0.673654 13.4123 0.810131C13.4708 0.951131 13.5 1.09776 13.5 1.25001V11.375H15.6263L17.0325 17ZM5.62503 13.625H12.375V1.25001H5.62503V13.625ZM15.5925 15.875L14.7488 12.5H13.5V14.75H4.50003V12.5H3.25128L2.40753 15.875H15.5925Z" fill="#5223bc"/>
</svg>
