<svg width="51" height="50" viewBox="0 0 51 50" fill="none" xmlns="http://www.w3.org/2000/svg">
<path d="M35.6666 34.05C37.213 34.05 38.4666 32.7964 38.4666 31.25C38.4666 29.7036 37.213 28.45 35.6666 28.45C34.1202 28.45 32.8666 29.7036 32.8666 31.25C32.8666 32.7964 34.1202 34.05 35.6666 34.05Z" fill="#3A3C40"/>
<path fill-rule="evenodd" clip-rule="evenodd" d="M35.6666 36.25C33.8416 36.25 30.1916 37.15 30.0666 38.95C31.3166 40.725 33.3666 41.875 35.6666 41.875C37.9666 41.875 40.0166 40.725 41.2666 38.95C41.1416 37.15 37.4916 36.25 35.6666 36.25Z" fill="#3A3C40"/>
<path fill-rule="evenodd" clip-rule="evenodd" d="M38.1666 20.225V8.175L19.4166 0L0.666626 8.175V20.45C0.666626 31.8 8.66663 42.425 19.4166 45C20.7916 44.675 22.1166 44.2 23.4166 43.625C26.1166 47.475 30.5916 50 35.6666 50C43.9416 50 50.6666 43.275 50.6666 35C50.6666 27.575 45.2666 21.425 38.1666 20.225ZM20.6666 35C20.6666 36.4 20.8666 37.775 21.2416 39.05C20.6416 39.325 20.0416 39.6 19.4166 39.8C11.4916 37.3 5.66663 29.2 5.66663 20.45V11.45L19.4166 5.45L33.1666 11.45V20.225C26.0666 21.425 20.6666 27.575 20.6666 35ZM35.6666 45C30.1416 45 25.6666 40.525 25.6666 35C25.6666 29.475 30.1416 25 35.6666 25C41.1916 25 45.6666 29.475 45.6666 35C45.6666 40.525 41.1916 45 35.6666 45Z" fill="#3A3C40"/>
</svg>
