<svg width="413" height="254" viewBox="0 0 413 254" fill="none" xmlns="http://www.w3.org/2000/svg">
<g clip-path="url(#clip0_203_235)">
<path d="M0 19.2C0 12.4794 0 9.11905 1.30792 6.55211C2.4584 4.29417 4.29417 2.4584 6.55211 1.30792C9.11905 0 12.4794 0 19.2 0H393.8C400.521 0 403.881 0 406.448 1.30792C408.706 2.4584 410.542 4.29417 411.692 6.55211C413 9.11905 413 12.4794 413 19.2V234.8C413 241.521 413 244.881 411.692 247.448C410.542 249.706 408.706 251.542 406.448 252.692C403.881 254 400.521 254 393.8 254H19.2C12.4794 254 9.11905 254 6.55211 252.692C4.29417 251.542 2.4584 249.706 1.30792 247.448C0 244.881 0 241.521 0 234.8V19.2Z" fill="#2D1367"/>
<mask id="mask0_203_235" style="mask-type:alpha" maskUnits="userSpaceOnUse" x="0" y="0" width="413" height="254">
<path d="M0 19.2C0 12.4794 0 9.11905 1.30792 6.55211C2.4584 4.29417 4.29417 2.4584 6.55211 1.30792C9.11905 0 12.4794 0 19.2 0H393.8C400.521 0 403.881 0 406.448 1.30792C408.706 2.4584 410.542 4.29417 411.692 6.55211C413 9.11905 413 12.4794 413 19.2V234.8C413 241.521 413 244.881 411.692 247.448C410.542 249.706 408.706 251.542 406.448 252.692C403.881 254 400.521 254 393.8 254H19.2C12.4794 254 9.11905 254 6.55211 252.692C4.29417 251.542 2.4584 249.706 1.30792 247.448C0 244.881 0 241.521 0 234.8V19.2Z" fill="#220F4F"/>
</mask>
<g mask="url(#mask0_203_235)">
<path d="M0 19.2C0 12.4794 0 9.11905 1.30792 6.55211C2.4584 4.29417 4.29417 2.4584 6.55211 1.30792C9.11905 0 12.4794 0 19.2 0H393.8C400.521 0 403.881 0 406.448 1.30792C408.706 2.4584 410.542 4.29417 411.692 6.55211C413 9.11905 413 12.4794 413 19.2V234.8C413 241.521 413 244.881 411.692 247.448C410.542 249.706 408.706 251.542 406.448 252.692C403.881 254 400.521 254 393.8 254H19.2C12.4794 254 9.11905 254 6.55211 252.692C4.29417 251.542 2.4584 249.706 1.30792 247.448C0 244.881 0 241.521 0 234.8V19.2Z" fill="url(#paint0_linear_203_235)"/>
<g opacity="0.4">
<g opacity="0.4">
<path style="mix-blend-mode:screen" d="M238.924 97.5542L292.909 95.2588L290.942 158.269L281.945 157.925L283.321 113.909L109.369 317L102.977 309.539L276.979 106.449L239.268 108.056L238.924 97.5542Z" fill="url(#paint1_linear_203_235)"/>
<path style="mix-blend-mode:screen" d="M193.117 214.69L192.871 205.968L237.712 204.074L236.089 256.468L228.616 256.123L229.747 219.568L85.0974 388.341L79.8365 382.201L224.486 213.37L193.117 214.69Z" fill="url(#paint2_linear_203_235)"/>
<path style="mix-blend-mode:screen" d="M254.575 236.842L254.428 232.595L276.209 231.677L275.422 257.099L271.833 256.984L272.373 239.194L202.163 321.142L199.557 318.158L269.817 236.21L254.575 236.842Z" fill="url(#paint3_linear_203_235)"/>
<path style="mix-blend-mode:screen" d="M161.306 234.088L161.208 229.842L182.989 228.923L182.202 254.346L178.564 254.231L179.104 236.441L108.894 318.389L106.337 315.405L176.548 233.457L161.306 234.088Z" fill="url(#paint4_linear_203_235)"/>
<path style="mix-blend-mode:screen" d="M122.218 98.8845L122.12 94.638L143.901 93.7198L143.065 119.142L139.476 118.97L140.017 101.237L69.8061 183.185L67.2494 180.201L137.46 98.1959L122.218 98.8845Z" fill="url(#paint5_linear_203_235)"/>
<path style="mix-blend-mode:screen" d="M273.456 157.017L273.358 154.894L284.42 154.435L284.027 167.347L282.158 167.232L282.453 158.222L246.807 199.827L245.529 198.278L281.175 156.73L273.456 157.017Z" fill="url(#paint6_linear_203_235)"/>
<path style="mix-blend-mode:screen" d="M146.163 195.18L146.114 193.056L157.176 192.597L156.734 205.509L154.914 205.394L155.209 196.385L119.563 237.99L118.236 236.44L153.882 194.893L146.163 195.18Z" fill="url(#paint7_linear_203_235)"/>
<path style="mix-blend-mode:screen" d="M303.497 228.176L303.398 226.053L314.461 225.594L314.068 238.449L312.248 238.391L312.494 229.381L276.897 270.987L275.57 269.437L311.216 227.832L303.497 228.176Z" fill="url(#paint8_linear_203_235)"/>
<path style="mix-blend-mode:screen" d="M196.558 78.1114L196.509 75.9308L207.572 75.4717L207.129 88.3836L205.31 88.3262L205.605 79.3166L169.959 120.864L168.631 119.372L204.277 77.7671L196.558 78.1114Z" fill="url(#paint9_linear_203_235)"/>
<path style="mix-blend-mode:screen" d="M168.779 181.35L169.959 144.795L25.31 313.625L20 307.428L164.649 138.597L133.281 139.917L133.035 131.194L177.924 129.3L176.302 181.694L168.779 181.35Z" fill="url(#paint10_linear_203_235)"/>
</g>
<path style="mix-blend-mode:screen" d="M329.684 26.697L393.552 23.9998L391.241 98.5447L380.572 98.0856L382.244 46.0362L176.283 286.37L168.761 277.59L374.721 37.1987L330.028 39.0924L329.684 26.697Z" fill="url(#paint11_linear_203_235)"/>
<path style="mix-blend-mode:screen" d="M246.266 196.442L245.971 186.113L299.071 183.875L297.153 245.852L288.303 245.507L289.631 202.181L118.431 402L112.187 394.712L283.387 194.893L246.266 196.442Z" fill="url(#paint12_linear_203_235)"/>
<path style="mix-blend-mode:screen" d="M318.985 222.668L318.837 217.675L344.65 216.585L343.716 246.655L339.389 246.483L340.077 225.48L256.936 322.463L253.937 318.905L337.029 221.922L318.985 222.668Z" fill="url(#paint13_linear_203_235)"/>
<path style="mix-blend-mode:screen" d="M208.605 219.453L208.457 214.403L234.27 213.313L233.336 243.44L229.009 243.211L229.697 222.208L146.556 319.19L143.508 315.69L226.649 218.65L208.605 219.453Z" fill="url(#paint14_linear_203_235)"/>
<path style="mix-blend-mode:screen" d="M162.338 59.3465L162.191 54.3539L188.004 53.2636L187.069 83.334L182.743 83.1619L183.431 62.1585L100.29 159.141L97.2413 155.583L180.383 58.6005L162.338 59.3465Z" fill="url(#paint15_linear_203_235)"/>
<path style="mix-blend-mode:screen" d="M341.306 128.209L341.257 125.684L354.335 125.11L353.843 140.375L351.68 140.318L352.024 129.644L309.839 178.824L308.315 177.045L350.451 127.808L341.306 128.209Z" fill="url(#paint16_linear_203_235)"/>
<path style="mix-blend-mode:screen" d="M190.707 173.372L190.609 170.847L203.687 170.273L203.245 185.538L201.032 185.481L201.376 174.807L159.191 224.044L157.667 222.208L199.852 172.97L190.707 173.372Z" fill="url(#paint17_linear_203_235)"/>
<path style="mix-blend-mode:screen" d="M376.904 212.452L376.805 209.87L389.884 209.296L389.441 224.618L387.229 224.504L387.573 213.83L345.388 263.067L343.863 261.288L386.049 212.051L376.904 212.452Z" fill="url(#paint18_linear_203_235)"/>
<path style="mix-blend-mode:screen" d="M250.347 34.7849L250.249 32.2599L263.327 31.6861L262.885 46.9508L260.672 46.8934L261.016 36.2196L218.831 85.3997L217.307 83.6207L259.492 34.3832L250.347 34.7849Z" fill="url(#paint19_linear_203_235)"/>
<path style="mix-blend-mode:screen" d="M217.503 157.017L218.831 113.691L47.6314 313.51L41.3872 306.222L212.587 106.403L175.466 107.952L175.171 97.6226L228.271 95.3846L226.353 157.362L217.503 157.017Z" fill="url(#paint20_linear_203_235)" fill-opacity="0.3"/>
</g>
</g>
</g>
<defs>
<linearGradient id="paint0_linear_203_235" x1="206.5" y1="254" x2="206.5" y2="0" gradientUnits="userSpaceOnUse">
<stop/>
<stop offset="1" stop-color="#3E1893"/>
</linearGradient>
<linearGradient id="paint1_linear_203_235" x1="150.461" y1="-0.723914" x2="-11.5928" y2="239.759" gradientUnits="userSpaceOnUse">
<stop offset="0.106" stop-color="#5223BC"/>
<stop offset="1"/>
</linearGradient>
<linearGradient id="paint2_linear_203_235" x1="119.295" y1="124.255" x2="-15.4276" y2="324.179" gradientUnits="userSpaceOnUse">
<stop offset="0.106" stop-color="#5223BC"/>
<stop offset="1"/>
</linearGradient>
<linearGradient id="paint3_linear_203_235" x1="218.738" y1="192.947" x2="153.337" y2="289.999" gradientUnits="userSpaceOnUse">
<stop offset="0.106" stop-color="#5223BC"/>
<stop offset="1"/>
</linearGradient>
<linearGradient id="paint4_linear_203_235" x1="125.48" y1="190.2" x2="60.0797" y2="287.252" gradientUnits="userSpaceOnUse">
<stop offset="0.106" stop-color="#5223BC"/>
<stop offset="1"/>
</linearGradient>
<linearGradient id="paint5_linear_203_235" x1="86.3867" y1="54.9616" x2="20.9858" y2="152.014" gradientUnits="userSpaceOnUse">
<stop offset="0.106" stop-color="#5223BC"/>
<stop offset="1"/>
</linearGradient>
<linearGradient id="paint6_linear_203_235" x1="255.247" y1="134.76" x2="222.06" y2="184.008" gradientUnits="userSpaceOnUse">
<stop offset="0.106" stop-color="#5223BC"/>
<stop offset="1"/>
</linearGradient>
<linearGradient id="paint7_linear_203_235" x1="127.981" y1="172.924" x2="94.7941" y2="222.172" gradientUnits="userSpaceOnUse">
<stop offset="0.106" stop-color="#5223BC"/>
<stop offset="1"/>
</linearGradient>
<linearGradient id="paint8_linear_203_235" x1="285.295" y1="205.908" x2="252.109" y2="255.156" gradientUnits="userSpaceOnUse">
<stop offset="0.106" stop-color="#5223BC"/>
<stop offset="1"/>
</linearGradient>
<linearGradient id="paint9_linear_203_235" x1="178.377" y1="55.8289" x2="145.191" y2="105.077" gradientUnits="userSpaceOnUse">
<stop offset="0.106" stop-color="#5223BC"/>
<stop offset="1"/>
</linearGradient>
<linearGradient id="paint10_linear_203_235" x1="59.4767" y1="49.4909" x2="-75.2455" y2="249.414" gradientUnits="userSpaceOnUse">
<stop offset="0.106" stop-color="#5223BC"/>
<stop offset="1"/>
</linearGradient>
<linearGradient id="paint11_linear_203_235" x1="224.943" y1="-89.6509" x2="33.1348" y2="194.987" gradientUnits="userSpaceOnUse">
<stop offset="0.106" stop-color="#5223BC"/>
<stop offset="1"/>
</linearGradient>
<linearGradient id="paint12_linear_203_235" x1="158.885" y1="89.4109" x2="-0.573449" y2="326.042" gradientUnits="userSpaceOnUse">
<stop offset="0.106" stop-color="#5223BC"/>
<stop offset="1"/>
</linearGradient>
<linearGradient id="paint13_linear_203_235" x1="276.589" y1="170.715" x2="199.181" y2="285.588" gradientUnits="userSpaceOnUse">
<stop offset="0.106" stop-color="#5223BC"/>
<stop offset="1"/>
</linearGradient>
<linearGradient id="paint14_linear_203_235" x1="166.208" y1="167.461" x2="88.799" y2="282.333" gradientUnits="userSpaceOnUse">
<stop offset="0.106" stop-color="#5223BC"/>
<stop offset="1"/>
</linearGradient>
<linearGradient id="paint15_linear_203_235" x1="119.936" y1="7.39528" x2="42.5277" y2="122.268" gradientUnits="userSpaceOnUse">
<stop offset="0.106" stop-color="#5223BC"/>
<stop offset="1"/>
</linearGradient>
<linearGradient id="paint16_linear_203_235" x1="319.8" y1="101.844" x2="280.52" y2="160.135" gradientUnits="userSpaceOnUse">
<stop offset="0.106" stop-color="#5223BC"/>
<stop offset="1"/>
</linearGradient>
<linearGradient id="paint17_linear_203_235" x1="169.166" y1="147.015" x2="129.886" y2="205.305" gradientUnits="userSpaceOnUse">
<stop offset="0.106" stop-color="#5223BC"/>
<stop offset="1"/>
</linearGradient>
<linearGradient id="paint18_linear_203_235" x1="355.367" y1="186.055" x2="316.087" y2="244.346" gradientUnits="userSpaceOnUse">
<stop offset="0.106" stop-color="#5223BC"/>
<stop offset="1"/>
</linearGradient>
<linearGradient id="paint19_linear_203_235" x1="228.817" y1="8.42048" x2="189.538" y2="66.7108" gradientUnits="userSpaceOnUse">
<stop offset="0.106" stop-color="#5223BC"/>
<stop offset="1"/>
</linearGradient>
<linearGradient id="paint20_linear_203_235" x1="88.085" y1="0.918606" x2="-71.3734" y2="237.55" gradientUnits="userSpaceOnUse">
<stop offset="0.106" stop-color="#5223BC"/>
<stop offset="1"/>
</linearGradient>
<clipPath id="clip0_203_235">
<rect width="413" height="254" fill="white"/>
</clipPath>
</defs>
</svg>
