<svg width="18" height="18" viewBox="0 0 18 18" fill="none" xmlns="http://www.w3.org/2000/svg">
<path d="M6.75 8.97638V3.75C6.75 3.15326 6.98705 2.58097 7.40901 2.15901C7.83097 1.73705 8.40326 1.5 9 1.5C9.59674 1.5 10.169 1.73705 10.591 2.15901C11.0129 2.58097 11.25 3.15326 11.25 3.75V4.50225M11.25 9.00113V14.25C11.25 14.8467 11.0129 15.419 10.591 15.841C10.169 16.2629 9.59674 16.5 9 16.5C8.40326 16.5 7.83097 16.2629 7.40901 15.841C6.98705 15.419 6.75 14.8467 6.75 14.25V13.4888" stroke="#7B7C7F" stroke-width="2" stroke-linecap="round"/>
<path d="M9 11.25H3.744C2.505 11.25 1.5 10.2428 1.5 9C1.5 7.75725 2.505 6.75 3.744 6.75H4.49588M9 6.75H14.2459C14.8431 6.7495 15.4162 6.98626 15.8389 7.40821C16.2616 7.83016 16.4994 8.40273 16.5 9C16.5 10.2428 15.4909 11.25 14.2459 11.25H13.5248" stroke="#7B7C7F" stroke-width="2" stroke-linecap="round"/>
</svg>
