<svg width="374" height="54" viewBox="0 0 374 54" fill="none" xmlns="http://www.w3.org/2000/svg">
<path d="M24.8168 4.75579e-08C29.7255 -0.000303763 34.524 1.45501 38.6055 4.1819C42.6871 6.90879 45.8684 10.7848 47.747 15.3197C49.6257 19.8546 50.1174 24.8448 49.16 29.6592C48.2025 34.4736 45.8389 38.8959 42.3681 42.367C38.8972 45.8381 34.475 48.2019 29.6607 49.1597C24.8464 50.1174 19.8562 49.626 15.3211 47.7476C10.7861 45.8692 6.90989 42.6882 4.18275 38.6068C1.45561 34.5254 9.40182e-09 29.727 0 24.8183C-1.26068e-08 18.2364 2.61457 11.924 7.26858 7.26966C11.9226 2.61537 18.2348 0.000407423 24.8168 4.75579e-08Z" fill="#DFF34F"/>
<path d="M13.3105 37.5868L36.5815 14.303L13.3274 14.3102V6.6298L42.0192 6.62109H49.7108V14.3015H49.7022L49.7108 43.004H42.0305L42.0234 19.7253L18.7416 43.0199L13.3105 37.5868Z" fill="url(#paint0_linear_1051_5132)"/>
<path d="M64.5127 42.9834H71.7783V32.3967H83.0941C90.5153 32.3967 97.4174 26.8438 97.4174 19.5265C97.4149 11.7939 90.8758 6.65625 83.0915 6.65625H64.5127V42.9834ZM90.1492 19.5265C90.1492 22.9514 87.0873 25.5981 83.0915 25.5981H71.7783V13.3505H83.0941C87.1391 13.351 90.1492 15.9454 90.1492 19.5265ZM134.883 42.9834V17.0355H128.449L127.722 20.4604C125.075 17.7621 121.235 16.2567 116.876 16.2567C108.209 16.2567 101.774 22.1209 101.774 30.0609C101.774 37.8949 108.261 43.7616 116.876 43.7616C121.287 43.7616 125.075 42.2046 127.722 39.5579L128.449 42.9834H134.883ZM109.039 30.0614C109.039 25.7542 112.982 22.6401 118.432 22.6401C123.883 22.6401 127.618 25.702 127.618 30.0614C127.618 34.3685 123.932 37.327 118.432 37.327C112.983 37.3265 109.039 34.2651 109.039 30.0614ZM160.364 53.2069L173.39 17.0355H165.76L158.91 36.0316H154.291L147.389 17.0355H139.709L149.155 42.9834H156.37L152.683 53.2069H160.364ZM202.14 35.6143C202.14 24.4046 183.924 30.0097 183.924 24.4568C183.924 22.7441 186 21.4988 188.855 21.4988C192.28 21.4988 194.148 22.9519 194.459 25.0277H201.725C201.31 19.6304 196.691 16.2572 188.906 16.2572C181.329 16.2572 176.659 19.9438 176.659 24.5085C176.659 34.9395 194.822 29.9057 194.822 35.6143C194.822 37.2748 192.591 38.5723 189.633 38.5723C185.946 38.5723 183.665 37.2231 183.25 34.9395H175.984C176.555 40.3367 181.848 43.7616 189.633 43.7616C197.21 43.7616 202.141 40.285 202.141 35.6143H202.14ZM237.792 31.8253C237.878 31.2413 237.912 30.6509 237.894 30.0609C237.894 21.8096 231.252 16.2567 222.38 16.2567C213.402 16.2567 206.759 22.1209 206.759 30.0609C206.759 37.8949 213.454 43.7616 222.38 43.7616C229.49 43.7616 235.042 40.3367 237.015 35.0429H229.645C228.296 36.9113 225.805 38.0531 222.691 38.0531C218.332 38.0531 215.011 35.5621 214.232 31.8253H237.792ZM214.231 28.1925C215.009 24.5597 218.174 22.1209 222.379 22.1209C226.634 22.1209 229.696 24.508 230.423 28.1925H214.231ZM250.039 30.0609C250.039 25.8572 253.672 22.8475 258.654 22.8475C262.545 22.8475 265.452 24.4563 266.646 27.1029H274.173C272.771 20.4604 266.646 16.2567 258.659 16.2567C249.525 16.2567 242.779 22.1209 242.779 30.0609C242.779 37.8949 249.577 43.7616 258.659 43.7616C266.702 43.7616 272.878 39.4545 274.227 32.8637H266.7C265.507 35.5621 262.601 37.1191 258.657 37.1191C253.725 37.1191 250.041 34.2129 250.041 30.0614L250.039 30.0609ZM303.699 29.127C303.699 33.7459 300.482 37.0152 295.917 37.0152C291.298 37.0152 288.028 33.7976 288.028 29.127V17.0355H280.763V29.1275C280.763 37.7423 286.212 43.7621 293.996 43.7621C295.913 43.7693 297.803 43.31 299.502 42.424C301.202 41.5379 302.661 40.2517 303.753 38.6762L304.427 42.9834H310.966V17.0355H303.701L303.699 29.127ZM338.522 16.2567C332.969 16.2567 328.662 19.163 326.274 23.7835L325.496 17.037H319.01V42.9834H326.276V35.6143C326.276 28.3487 330.791 23.9401 338.524 23.9401L338.522 16.2567ZM373.345 31.8258C373.431 31.2418 373.465 30.6514 373.448 30.0614C373.448 21.8101 366.805 16.2572 357.933 16.2572C348.956 16.2572 342.313 22.1214 342.313 30.0614C342.313 37.8954 349.007 43.7621 357.933 43.7621C365.043 43.7621 370.596 40.3372 372.568 35.0434H365.197C363.848 36.9118 361.357 38.0536 358.243 38.0536C353.884 38.0536 350.563 35.5626 349.784 31.8258H373.345ZM349.785 28.193C350.563 24.5602 353.727 22.1214 357.932 22.1214C362.188 22.1214 365.25 24.5085 365.976 28.193H349.785Z" fill="white"/>
<defs>
<linearGradient id="paint0_linear_1051_5132" x1="13.3105" y1="20.3434" x2="73.6986" y2="27.4418" gradientUnits="userSpaceOnUse">
<stop stop-color="#5223BC"/>
<stop offset="1" stop-color="#DFF34F"/>
</linearGradient>
</defs>
</svg>
