<svg width="18" height="18" viewBox="0 0 18 18" fill="none" xmlns="http://www.w3.org/2000/svg">
<path d="M9.06667 2.13333C9.06667 1.83275 9.18607 1.54449 9.39861 1.33195C9.61115 1.1194 9.89942 1 10.2 1H13.6C13.9006 1 14.1888 1.1194 14.4014 1.33195C14.6139 1.54449 14.7333 1.83275 14.7333 2.13333V6.66667H13.6V2.13333H10.2V5.53333C10.2 5.83391 10.0806 6.12218 9.86805 6.33472C9.65551 6.54726 9.36725 6.66667 9.06667 6.66667H5.66667V10.0667C5.66667 10.3672 5.54726 10.6555 5.33472 10.8681C5.12218 11.0806 4.83391 11.2 4.53333 11.2H1.13333V14.6H5.66667V15.7333H1.13333C0.832755 15.7333 0.544487 15.6139 0.331946 15.4014C0.119404 15.1888 0 14.9006 0 14.6V11.2C0 10.8994 0.119404 10.6112 0.331946 10.3986C0.544487 10.1861 0.832755 10.0667 1.13333 10.0667H4.53333V6.66667C4.53333 6.36609 4.65274 6.07782 4.86528 5.86528C5.07782 5.65274 5.36609 5.53333 5.66667 5.53333H9.06667V2.13333ZM12.4667 7.8C12.1661 7.8 11.8778 7.9194 11.6653 8.13195C11.4527 8.34449 11.3333 8.63275 11.3333 8.93333V12.3333H7.93333C7.63275 12.3333 7.34449 12.4527 7.13195 12.6653C6.9194 12.8778 6.8 13.1661 6.8 13.4667V16.8667C6.8 17.1672 6.9194 17.4555 7.13195 17.6681C7.34449 17.8806 7.63275 18 7.93333 18H14.1667C14.9181 18 15.6388 17.7015 16.1701 17.1701C16.7015 16.6388 17 15.9181 17 15.1667V8.93333C17 8.63275 16.8806 8.34449 16.6681 8.13195C16.4555 7.9194 16.1672 7.8 15.8667 7.8H12.4667ZM12.4667 8.93333H15.8667V15.1667C15.8667 15.6175 15.6876 16.0499 15.3687 16.3687C15.0499 16.6876 14.6175 16.8667 14.1667 16.8667H7.93333V13.4667H11.3333C11.6339 13.4667 11.9222 13.3473 12.1347 13.1347C12.3473 12.9222 12.4667 12.6339 12.4667 12.3333V8.93333Z" fill="#7B7C7F"/>
</svg>
