<svg width="180" height="180" viewBox="0 0 180 180" fill="none" xmlns="http://www.w3.org/2000/svg">
<path d="M89.86 1.72204e-07C107.634 -0.00109991 125.009 5.26849 139.788 15.1424C154.567 25.0163 166.086 39.0509 172.889 55.4716C179.691 71.8923 181.472 89.9614 178.005 107.394C174.538 124.827 165.98 140.84 153.412 153.408C140.844 165.977 124.832 174.536 107.399 178.004C89.9671 181.472 71.8979 179.693 55.4768 172.891C39.0557 166.089 25.0203 154.571 15.1455 139.793C5.27066 125.014 3.40434e-08 107.639 0 89.8655C-4.56483e-08 66.0327 9.46718 43.1759 26.319 26.323C43.1709 9.47007 66.0271 0.00147525 89.86 1.72204e-07Z" fill="#DFF34F"/>
<path d="M48.1968 136.095L132.459 51.7864L48.2579 51.8123V24.0022L152.149 23.9707H180V51.7808H179.968L180 155.711H152.19L152.164 71.4203L67.8621 155.768L48.1968 136.095Z" fill="url(#paint0_linear_1051_5139)"/>
<defs>
<linearGradient id="paint0_linear_1051_5139" x1="48.1968" y1="73.6584" x2="266.858" y2="99.361" gradientUnits="userSpaceOnUse">
<stop stop-color="#5223BC"/>
<stop offset="1" stop-color="#DFF34F"/>
</linearGradient>
</defs>
</svg>
