<svg width="34" height="34" viewBox="0 0 34 34" fill="none" xmlns="http://www.w3.org/2000/svg">
<g clip-path="url(#clip0_15_204)">
<path d="M16.9996 23.1725C19.4892 23.1725 23.3445 23.8134 26.525 25.0875C28.1136 25.7239 29.4045 26.4679 30.2653 27.2623C31.1121 28.0439 31.403 28.7328 31.403 29.3453V31.403H2.59729V29.3453C2.59729 28.7328 2.88818 28.0439 3.73499 27.2623C4.59576 26.468 5.88675 25.7239 7.47522 25.0875C10.6555 23.8136 14.5101 23.1725 16.9996 23.1725ZM16.9996 2.59729C20.4104 2.59729 23.1725 5.35933 23.1725 8.77014C23.1723 12.1808 20.4103 14.942 16.9996 14.942C13.5891 14.9418 10.8279 12.1807 10.8278 8.77014C10.8278 5.35945 13.589 2.59748 16.9996 2.59729Z" stroke="#3A3C40" stroke-width="4.11508"/>
</g>
<defs>
<clipPath id="clip0_15_204">
<rect width="34" height="34" fill="white"/>
</clipPath>
</defs>
</svg>
