<svg width="16" height="16" viewBox="0 0 16 16" fill="none" xmlns="http://www.w3.org/2000/svg">
<path fill-rule="evenodd" clip-rule="evenodd" d="M1.8125 5.1875V1.8125H5.1875V5.1875H1.8125ZM0.125 1.25C0.125 0.951631 0.243526 0.665483 0.454505 0.454505C0.665483 0.243526 0.951631 0.125 1.25 0.125H5.75C6.04837 0.125 6.33452 0.243526 6.5455 0.454505C6.75647 0.665483 6.875 0.951631 6.875 1.25V5.75C6.875 6.04837 6.75647 6.33452 6.5455 6.5455C6.33452 6.75647 6.04837 6.875 5.75 6.875H1.25C0.951631 6.875 0.665483 6.75647 0.454505 6.5455C0.243526 6.33452 0.125 6.04837 0.125 5.75V1.25ZM9.125 1.53125C9.125 1.30747 9.21389 1.09286 9.37213 0.934629C9.53036 0.776395 9.74497 0.6875 9.96875 0.6875H15.0312C15.255 0.6875 15.4696 0.776395 15.6279 0.934629C15.7861 1.09286 15.875 1.30747 15.875 1.53125C15.875 1.75503 15.7861 1.96964 15.6279 2.12787C15.4696 2.28611 15.255 2.375 15.0312 2.375H9.96875C9.74497 2.375 9.53036 2.28611 9.37213 2.12787C9.21389 1.96964 9.125 1.75503 9.125 1.53125ZM9.96875 4.625C9.74497 4.625 9.53036 4.71389 9.37213 4.87213C9.21389 5.03036 9.125 5.24497 9.125 5.46875C9.125 5.69253 9.21389 5.90714 9.37213 6.06537C9.53036 6.22361 9.74497 6.3125 9.96875 6.3125H15.0312C15.255 6.3125 15.4696 6.22361 15.6279 6.06537C15.7861 5.90714 15.875 5.69253 15.875 5.46875C15.875 5.24497 15.7861 5.03036 15.6279 4.87213C15.4696 4.71389 15.255 4.625 15.0312 4.625H9.96875ZM1.8125 10.8125V14.1875H5.1875V10.8125H1.8125ZM1.25 9.125C0.951631 9.125 0.665483 9.24353 0.454505 9.4545C0.243526 9.66548 0.125 9.95163 0.125 10.25V14.75C0.125 15.0484 0.243526 15.3345 0.454505 15.5455C0.665483 15.7565 0.951631 15.875 1.25 15.875H5.75C6.04837 15.875 6.33452 15.7565 6.5455 15.5455C6.75647 15.3345 6.875 15.0484 6.875 14.75V10.25C6.875 9.95163 6.75647 9.66548 6.5455 9.4545C6.33452 9.24353 6.04837 9.125 5.75 9.125H1.25ZM9.96875 9.6875C9.74497 9.6875 9.53036 9.77639 9.37213 9.93463C9.21389 10.0929 9.125 10.3075 9.125 10.5312C9.125 10.755 9.21389 10.9696 9.37213 11.1279C9.53036 11.2861 9.74497 11.375 9.96875 11.375H15.0312C15.255 11.375 15.4696 11.2861 15.6279 11.1279C15.7861 10.9696 15.875 10.755 15.875 10.5312C15.875 10.3075 15.7861 10.0929 15.6279 9.93463C15.4696 9.77639 15.255 9.6875 15.0312 9.6875H9.96875ZM9.96875 13.625C9.74497 13.625 9.53036 13.7139 9.37213 13.8721C9.21389 14.0304 9.125 14.245 9.125 14.4688C9.125 14.6925 9.21389 14.9071 9.37213 15.0654C9.53036 15.2236 9.74497 15.3125 9.96875 15.3125H15.0312C15.255 15.3125 15.4696 15.2236 15.6279 15.0654C15.7861 14.9071 15.875 14.6925 15.875 14.4688C15.875 14.245 15.7861 14.0304 15.6279 13.8721C15.4696 13.7139 15.255 13.625 15.0312 13.625H9.96875Z" fill="#7b7c7f"/>
</svg>
