<svg width="42" height="42" viewBox="0 0 42 42" fill="none" xmlns="http://www.w3.org/2000/svg">
<path d="M20.9997 28.6247C24.0751 28.6247 28.8374 29.417 32.7663 30.9909C34.7287 31.777 36.3231 32.696 37.3864 33.6774C38.4323 34.6427 38.7916 35.4931 38.7917 36.2497V38.7917H3.20866V36.2497C3.20876 35.4932 3.56735 34.6426 4.61295 33.6774C5.67627 32.696 7.27164 31.777 9.23405 30.9909C13.1628 29.4171 17.9243 28.6248 20.9997 28.6247ZM20.9997 3.20868C25.213 3.20868 28.6247 6.62032 28.6247 10.8337C28.6245 15.0469 25.2129 18.4587 20.9997 18.4587C16.7866 18.4585 13.3748 15.0468 13.3747 10.8337C13.3747 6.62043 16.7865 3.20886 20.9997 3.20868Z" stroke="#5223BC" stroke-width="5.08333"/>
</svg>
