<svg width="18" height="18" viewBox="0 0 18 18" fill="none" xmlns="http://www.w3.org/2000/svg">
<path d="M9.77041 6.92887C9.65886 7.04355 9.5962 7.19901 9.5962 7.36109C9.5962 7.52317 9.65886 7.67863 9.77041 7.79331L10.9379 8.9921L9.77041 10.1909C9.71189 10.2469 9.66495 10.3144 9.63239 10.3894C9.59983 10.4645 9.58233 10.5455 9.58091 10.6276C9.5795 10.7097 9.59422 10.7913 9.62418 10.8674C9.65414 10.9436 9.69873 11.0128 9.75529 11.0709C9.81186 11.1289 9.87924 11.1747 9.95341 11.2055C10.0276 11.2362 10.107 11.2514 10.187 11.2499C10.267 11.2485 10.3459 11.2305 10.4189 11.1971C10.492 11.1636 10.5578 11.1154 10.6123 11.0553L12.2008 9.42432C12.3123 9.30964 12.375 9.15418 12.375 8.9921C12.375 8.83002 12.3123 8.67457 12.2008 8.55988L10.6123 6.92887C10.5006 6.81433 10.3492 6.75 10.1914 6.75C10.0335 6.75 9.8821 6.81433 9.77041 6.92887ZM8.22959 7.79331C8.33481 7.67736 8.39209 7.52401 8.38937 7.36556C8.38664 7.2071 8.32413 7.05592 8.21499 6.94386C8.10585 6.8318 7.95861 6.76761 7.80429 6.76481C7.64997 6.76202 7.50061 6.82083 7.38769 6.92887L5.79921 8.55988C5.68766 8.67457 5.625 8.83002 5.625 8.9921C5.625 9.15418 5.68766 9.30964 5.79921 9.42432L7.38769 11.0553C7.44222 11.1154 7.50799 11.1636 7.58106 11.1971C7.65413 11.2305 7.73301 11.2485 7.81299 11.2499C7.89297 11.2514 7.97242 11.2362 8.04659 11.2055C8.12076 11.1747 8.18814 11.1289 8.24471 11.0709C8.30127 11.0128 8.34586 10.9436 8.37582 10.8674C8.40578 10.7913 8.4205 10.7097 8.41909 10.6276C8.41767 10.5455 8.40017 10.4645 8.36761 10.3894C8.33505 10.3144 8.28811 10.2469 8.22959 10.1909L7.06205 8.9921L8.22959 7.79331Z" fill="#7B7C7F"/>
<path d="M14.0257 15.1439C12.4564 16.4269 10.4541 17.0576 8.43293 16.9056C6.41173 16.7536 4.52627 15.8304 3.16652 14.3271C1.80677 12.8238 1.07676 10.8553 1.12748 8.82874C1.17819 6.80221 2.00575 4.8727 3.43899 3.43928C4.87223 2.00586 6.8015 1.1782 8.82777 1.12748C10.854 1.07676 12.8223 1.80686 14.3254 3.16678C15.8286 4.5267 16.7516 6.41239 16.9036 8.43384C17.0557 10.4553 16.425 12.4579 15.1422 14.0273L17.7479 16.6324C17.8519 16.7289 17.9279 16.8517 17.9679 16.9879C18.008 17.124 18.0106 17.2685 17.9754 17.406C17.9403 17.5435 17.8687 17.6689 17.7682 17.7691C17.6677 17.8694 17.5421 17.9406 17.4046 17.9754C17.2672 18.0105 17.123 18.008 16.987 17.9681C16.851 17.9283 16.7282 17.8526 16.6315 17.7489L14.0257 15.1439ZM2.70747 9.02692C2.70718 10.2585 3.06669 11.4634 3.74181 12.4934C4.41693 13.5234 5.37825 14.3337 6.50761 14.8247C7.63707 15.3157 8.88535 15.4658 10.099 15.2568C11.3127 15.0478 12.4388 14.4886 13.339 13.6481C13.4106 13.5184 13.5171 13.4115 13.6465 13.3395C14.3494 12.5864 14.8576 11.6729 15.1268 10.6785C15.3961 9.68411 15.4182 8.63898 15.1912 7.6341C14.9642 6.62921 14.4951 5.69505 13.8247 4.91293C13.1542 4.13082 12.3028 3.52447 11.3445 3.14667C10.3862 2.76887 9.35006 2.63109 8.32634 2.7453C7.30262 2.85952 6.32234 3.22228 5.47084 3.802C4.61933 4.38172 3.92243 5.16082 3.44081 6.07147C2.95918 6.98213 2.70743 7.99672 2.70747 9.02692Z" fill="#7B7C7F"/>
</svg>
