<svg width="18" height="18" viewBox="0 0 18 18" fill="none" xmlns="http://www.w3.org/2000/svg">
<path d="M11.25 1.5C12.7125 1.5 13.9532 2.0095 14.9722 3.0285C15.9912 4.0475 16.5005 5.288 16.5 6.75H15C15 6.25 14.9092 5.7845 14.7277 5.3535C14.5462 4.9225 14.2995 4.538 13.9875 4.2L12.9562 5.94375C12.8312 6.14375 12.697 6.3625 12.5535 6.6C12.41 6.8375 12.2567 7.04375 12.0937 7.21875C11.9187 7.40625 11.7 7.5 11.4375 7.5C11.175 7.5 10.95 7.4125 10.7625 7.2375C10.575 7.0625 10.4812 6.84375 10.4812 6.58125C10.4812 6.31875 10.575 6.09375 10.7625 5.90625C10.9375 5.73125 11.147 5.575 11.391 5.4375C11.635 5.3 11.8567 5.16875 12.0562 5.04375L13.8 4.0125C13.4625 3.7 13.0782 3.45325 12.6472 3.27225C12.2162 3.09125 11.7505 3.0005 11.25 3V1.5ZM9.0562 16.5C8.0062 16.5 7.02195 16.3 6.10345 15.9C5.18495 15.5 4.38495 14.9595 3.70345 14.2785C3.02195 13.5975 2.4812 12.7975 2.0812 11.8785C1.6812 10.9595 1.4812 9.975 1.4812 8.925C1.4812 7.1 2.06245 5.49075 3.22495 4.09725C4.38745 2.70375 5.8687 1.838 7.6687 1.5C7.4437 2.7375 7.51245 3.947 7.87495 5.1285C8.23745 6.31 8.86245 7.34425 9.74995 8.23125C10.6375 9.11825 11.672 9.74325 12.8535 10.1063C14.035 10.4693 15.2442 10.538 16.4812 10.3125C16.1562 12.1125 15.2937 13.5937 13.8937 14.7562C12.4937 15.9187 10.8812 16.5 9.0562 16.5ZM9.0562 15C10.1562 15 11.175 14.725 12.1125 14.175C13.05 13.625 13.7875 12.8687 14.325 11.9062C13.25 11.8062 12.2312 11.5343 11.2687 11.0903C10.3062 10.6462 9.4437 10.0433 8.6812 9.28125C7.9187 8.51925 7.31245 7.65675 6.86245 6.69375C6.41245 5.73075 6.1437 4.712 6.0562 3.6375C5.0937 4.175 4.3407 4.91575 3.7972 5.85975C3.2537 6.80375 2.9817 7.8255 2.9812 8.925C2.9812 10.6125 3.57195 12.047 4.75345 13.2285C5.93495 14.41 7.3692 15.0005 9.0562 15Z" fill="#7B7C7F"/>
</svg>
