<svg width="16" height="15" viewBox="0 0 16 15" fill="none" xmlns="http://www.w3.org/2000/svg">
<path d="M2.657 8.20749C2.21468 8.48467 1.85233 8.87246 1.60577 9.33255C1.3592 9.79264 1.23696 10.3091 1.2511 10.8309C1.26525 11.3527 1.4153 11.8618 1.68643 12.3078C1.95756 12.7539 2.34039 13.1215 2.79708 13.3743C3.25377 13.6271 3.76852 13.7564 4.29046 13.7493C4.81241 13.7423 5.32349 13.5992 5.77319 13.3342C6.2229 13.0691 6.59567 12.6913 6.85467 12.2381C7.11367 11.7849 7.24993 11.272 7.25 10.75H11.75" stroke="#7B7C7F" stroke-linecap="round" stroke-linejoin="round"/>
<path d="M10.2995 13.3765C10.7002 13.5977 11.1462 13.7242 11.6033 13.7465C12.0605 13.7687 12.5167 13.6861 12.9369 13.5048C13.3572 13.3236 13.7305 13.0487 14.0281 12.701C14.3258 12.3533 14.5399 11.9421 14.6542 11.4989C14.7684 11.0557 14.7798 10.5923 14.6873 10.144C14.5949 9.69575 14.4011 9.27459 14.1208 8.91277C13.8405 8.55095 13.4811 8.25806 13.0702 8.05652C12.6593 7.85498 12.2077 7.75013 11.75 7.75C11.2205 7.75 10.682 7.88425 10.25 8.125L8 4" stroke="#7B7C7F" stroke-linecap="round" stroke-linejoin="round"/>
<path d="M11 4C11 3.20435 10.6839 2.44129 10.1213 1.87868C9.55871 1.31607 8.79565 1 8 1C7.20435 1 6.44129 1.31607 5.87868 1.87868C5.31607 2.44129 5 3.20435 5 4C5 5.1295 5.5775 6.1135 6.5 6.625L4.25 10.75" stroke="#7B7C7F" stroke-linecap="round" stroke-linejoin="round"/>
</svg>
